<svg width="18" height="15" viewBox="0 0 18 15" fill="none" xmlns="http://www.w3.org/2000/svg">
<path d="M9 6.2V14M9 6.2C9 4.37983 9 3.46975 8.61244 2.77453C8.27156 2.163 7.72764 1.66582 7.05863 1.35423C6.29805 1 5.30241 1 3.31111 1H2.42222C1.9244 1 1.67548 1 1.48534 1.08855C1.31809 1.16646 1.18211 1.29075 1.09688 1.44363C1 1.61744 1 1.84496 1 2.3V11.075C1 11.5301 1 11.7576 1.09688 11.9314C1.18211 12.0843 1.31809 12.2085 1.48534 12.2864C1.67548 12.375 1.9244 12.375 2.42222 12.375H5.04149C5.52166 12.375 5.76174 12.375 5.9939 12.4129C6.19996 12.4464 6.40098 12.502 6.59281 12.5786C6.80892 12.6648 7.00868 12.7865 7.40818 13.03L9 14M9 6.2C9 4.37983 9 3.46975 9.38756 2.77453C9.72844 2.163 10.2724 1.66582 10.9413 1.35423C11.702 1 12.6976 1 14.6889 1H15.5778C16.0756 1 16.3245 1 16.5147 1.08855C16.682 1.16646 16.8179 1.29075 16.9031 1.44363C17 1.61744 17 1.84496 17 2.3V11.075C17 11.5301 17 11.7576 16.9031 11.9314C16.8179 12.0843 16.682 12.2085 16.5147 12.2864C16.3245 12.375 16.0756 12.375 15.5778 12.375H12.9585C12.4783 12.375 12.2382 12.375 12.0061 12.4129C11.8 12.4464 11.599 12.502 11.4072 12.5786C11.1911 12.6648 10.9913 12.7865 10.5918 13.03L9 14" stroke="#505050" stroke-width="2" stroke-linecap="round" stroke-linejoin="round"/>
</svg>
