<svg width="13" height="11" viewBox="0 0 13 11" fill="none" xmlns="http://www.w3.org/2000/svg">
<path d="M11.6001 2.52818L9.42405 3.79989C8.21087 4.50889 7.60429 4.86342 6.96189 5.00241C6.39331 5.12539 5.80689 5.12539 5.23831 5.00241C4.59593 4.86342 3.98934 4.50889 2.77614 3.79989L0.600098 2.52818M2.55565 9.59961H9.64454C10.329 9.59961 10.6713 9.59961 10.9328 9.45947C11.1627 9.33623 11.3497 9.13952 11.4669 8.89761C11.6001 8.6226 11.6001 8.26253 11.6001 7.54247V2.65675C11.6001 1.93669 11.6001 1.57665 11.4669 1.30162C11.3497 1.0597 11.1627 0.863007 10.9328 0.739746C10.6713 0.599609 10.329 0.599609 9.64454 0.599609H2.55565C1.87115 0.599609 1.52889 0.599609 1.26744 0.739746C1.03746 0.863007 0.850488 1.0597 0.733314 1.30162C0.600098 1.57665 0.600098 1.93668 0.600098 2.65675V7.54247C0.600098 8.26253 0.600098 8.6226 0.733314 8.89761C0.850488 9.13952 1.03746 9.33623 1.26744 9.45947C1.52889 9.59961 1.87114 9.59961 2.55565 9.59961Z" stroke="#505050" stroke-width="1.2" stroke-linecap="round" stroke-linejoin="round"/>
</svg>
