<svg width="17" height="14" viewBox="0 0 17 14" fill="none" xmlns="http://www.w3.org/2000/svg">
<path d="M15.75 3.32143L12.7827 5.01705C11.1283 5.96237 10.3012 6.43509 9.42517 6.6204C8.64983 6.78437 7.85017 6.78437 7.07483 6.6204C6.19887 6.43509 5.37169 5.96237 3.71733 5.01705L0.75 3.32143M3.41667 12.75H13.0833C14.0167 12.75 14.4835 12.75 14.84 12.5631C15.1536 12.3988 15.4086 12.1365 15.5683 11.814C15.75 11.4473 15.75 10.9672 15.75 10.0071V3.49286C15.75 2.53277 15.75 2.05272 15.5683 1.68602C15.4086 1.36345 15.1536 1.1012 14.84 0.936849C14.4835 0.75 14.0167 0.75 13.0833 0.75H3.41667C2.48325 0.75 2.01653 0.75 1.66002 0.936849C1.34641 1.1012 1.09144 1.36345 0.931658 1.68602C0.75 2.05272 0.75 2.53276 0.75 3.49286V10.0071C0.75 10.9672 0.75 11.4473 0.931658 11.814C1.09144 12.1365 1.34641 12.3988 1.66002 12.5631C2.01653 12.75 2.48324 12.75 3.41667 12.75Z" stroke="white" stroke-width="1.5" stroke-linecap="round" stroke-linejoin="round"/>
</svg>
