<svg width="8" height="11" viewBox="0 0 8 11" fill="none" xmlns="http://www.w3.org/2000/svg">
<path fill-rule="evenodd" clip-rule="evenodd" d="M6.18184 4.53701L6.00476 5.82961H3.87779V10.3537H2.58519V5.82961H0.646296V4.53701H2.58519V3.35235C2.58519 1.70882 3.59471 0.646296 5.15811 0.646296C5.82767 0.646296 6.24518 0.681845 6.48625 0.714158L6.46751 1.93825L5.4735 1.94019C5.44636 1.9376 4.79877 1.88719 4.33149 2.31634C4.03032 2.5923 3.87779 2.98913 3.87779 3.49454V4.53702H6.18184V4.53701ZM4.76516 2.79524C5.0198 2.55805 5.41662 2.5839 5.44571 2.58519L7.10411 2.58455L7.13966 0.192597L6.89019 0.131198C6.72991 0.0917813 6.23937 0 5.15811 0C3.23278 0 1.93889 1.34753 1.93889 3.35235V3.89072H0V6.47591H1.93889V11H4.52409V6.47591H6.56768L6.9225 3.89072H4.52409V3.49453C4.52409 3.17979 4.60552 2.94453 4.76516 2.79524Z" fill="#505050"/>
</svg>
