<svg width="32" height="23" viewBox="0 0 32 23" fill="none" xmlns="http://www.w3.org/2000/svg">
<path d="M1.76221 9.39844C0.788975 9.39844 0 10.1874 0 11.1606C0 12.1339 0.788975 12.9229 1.76221 12.9229V9.39844ZM29.9575 12.9229C30.9307 12.9229 31.7197 12.1339 31.7197 11.1606C31.7197 10.1874 30.9307 9.39844 29.9575 9.39844V12.9229ZM1.76221 18.7969C0.788975 18.7969 0 19.5859 0 20.5591C0 21.5323 0.788975 22.3213 1.76221 22.3213V18.7969ZM29.9575 22.3213C30.9307 22.3213 31.7197 21.5323 31.7197 20.5591C31.7197 19.5859 30.9307 18.7969 29.9575 18.7969V22.3213ZM1.76221 0C0.788975 0 0 0.788975 0 1.76221C0 2.73544 0.788975 3.52441 1.76221 3.52441V0ZM29.9575 3.52441C30.9307 3.52441 31.7197 2.73544 31.7197 1.76221C31.7197 0.788975 30.9307 0 29.9575 0V3.52441ZM1.76221 12.9229H29.9575V9.39844H1.76221V12.9229ZM1.76221 22.3213H29.9575V18.7969H1.76221V22.3213ZM1.76221 3.52441H29.9575V0H1.76221V3.52441Z" fill="white"/>
</svg>
