<svg width="15" height="15" viewBox="0 0 15 15" fill="none" xmlns="http://www.w3.org/2000/svg">
<path d="M7.5 3.64561C6.73835 3.64561 5.9938 3.87126 5.36053 4.29401C4.72724 4.71676 4.23365 5.31764 3.94217 6.02064C3.6507 6.72367 3.57444 7.49727 3.72304 8.24357C3.87162 8.98986 4.23839 9.67544 4.77696 10.2135C5.31553 10.7515 6.00169 11.1179 6.74868 11.2664C7.49577 11.4148 8.27 11.3386 8.9737 11.0474C9.67739 10.7563 10.2788 10.2631 10.7019 9.63049C11.1252 8.99774 11.351 8.25389 11.351 7.49296C11.3522 6.98736 11.2535 6.48654 11.0604 6.01923C10.8672 5.55184 10.5837 5.12723 10.2258 4.76972C9.86797 4.41221 9.44295 4.12886 8.9752 3.93595C8.50735 3.74305 8.00607 3.64438 7.5 3.64561ZM7.5 9.99843C7.00397 9.99843 6.51912 9.85148 6.10669 9.57616C5.69436 9.30093 5.37289 8.90963 5.18308 8.45179C4.99327 7.99396 4.94361 7.49024 5.04037 7.00416C5.13713 6.51817 5.37598 6.07169 5.72667 5.7213C6.07739 5.37093 6.52429 5.13231 7.01073 5.03564C7.49727 4.93897 8.00147 4.98858 8.45973 5.17822C8.918 5.36785 9.30967 5.68901 9.58516 6.10096C9.86074 6.51301 10.0078 6.9974 10.0078 7.49296C10.0078 8.15742 9.74361 8.79477 9.27332 9.26462C8.80303 9.73447 8.16509 9.99843 7.5 9.99843ZM12.4123 3.48608C12.4123 3.67169 12.3573 3.85311 12.2541 4.00742C12.1508 4.16174 12.0041 4.28202 11.8325 4.35303C11.6609 4.42406 11.472 4.44264 11.2898 4.40644C11.1076 4.37022 10.9403 4.28085 10.8089 4.14962C10.6776 4.01839 10.5881 3.85119 10.5518 3.66916C10.5156 3.48712 10.5342 3.29845 10.6053 3.12698C10.6764 2.95552 10.7968 2.80897 10.9512 2.70586C11.1057 2.60274 11.2873 2.5477 11.4731 2.5477C11.7222 2.5477 11.9611 2.64657 12.1372 2.82255C12.3134 2.99853 12.4123 3.23722 12.4123 3.48608ZM14.9577 4.42446C14.9851 3.2579 14.5495 2.12787 13.7461 1.28089C12.9028 0.467961 11.7712 0.0224836 10.5996 0.0422271C9.37852 -0.0140757 5.62147 -0.0140757 4.40044 0.0422271C3.23314 0.0169753 2.1028 0.451839 1.25391 1.25274C0.450507 2.09972 0.014953 3.22975 0.0422668 4.39631C-0.0140889 5.6162 -0.0140889 9.36972 0.0422668 10.5896C0.014953 11.7562 0.450507 12.8862 1.25391 13.7332C2.1028 14.5341 3.23314 14.9689 4.40044 14.9437C5.64026 15.0188 9.35973 15.0188 10.5996 14.9437C11.7672 14.971 12.8983 14.5359 13.7461 13.7332C14.5495 12.8862 14.9851 11.7562 14.9577 10.5896C15.0141 9.36972 15.0141 5.6162 14.9577 4.39631V4.42446ZM13.361 11.9315C13.2334 12.2543 13.041 12.5474 12.7954 12.7927C12.5497 13.0381 12.2564 13.2304 11.9333 13.3578C10.4752 13.6524 8.98459 13.7534 7.5 13.6581C6.01859 13.7535 4.53101 13.6525 3.07608 13.3578C2.75304 13.2304 2.45963 13.0381 2.21405 12.7927C1.96846 12.5474 1.77594 12.2543 1.6484 11.9315C1.25391 10.9368 1.33845 8.59086 1.33845 7.50234C1.33845 6.41382 1.25391 4.0585 1.6484 3.0732C1.77234 2.74727 1.96349 2.45102 2.20944 2.20367C2.4554 1.95634 2.75067 1.76342 3.07608 1.63747C4.53101 1.3428 6.01859 1.24183 7.5 1.33719C8.98459 1.24199 10.4752 1.34296 11.9333 1.63747C12.2564 1.76489 12.5497 1.95723 12.7954 2.20258C13.041 2.44793 13.2334 2.74107 13.361 3.06381C13.7555 4.0585 13.6616 6.40444 13.6616 7.49296C13.6616 8.58148 13.7555 10.9368 13.361 11.9221V11.9315Z" fill="white"/>
</svg>
