<svg width="11" height="11" viewBox="0 0 11 11" fill="none" xmlns="http://www.w3.org/2000/svg">
<path d="M5.5 2.67345C4.94145 2.67345 4.39545 2.83892 3.93105 3.14894C3.46664 3.45896 3.10467 3.8996 2.89093 4.41513C2.67718 4.93069 2.62126 5.498 2.73023 6.04528C2.83919 6.59257 3.10815 7.09532 3.50311 7.48991C3.89805 7.88442 4.40124 8.15314 4.94903 8.26201C5.4969 8.37087 6.06467 8.31499 6.58071 8.10146C7.09675 7.88793 7.53779 7.52631 7.84809 7.06236C8.15846 6.59835 8.32404 6.05285 8.32404 5.49484C8.32494 5.12406 8.25255 4.7568 8.11093 4.4141C7.96932 4.07135 7.76137 3.75997 7.49894 3.4978C7.23651 3.23562 6.92483 3.02783 6.58181 2.88636C6.23873 2.7449 5.87112 2.67254 5.5 2.67345ZM5.5 7.33218C5.13625 7.33218 4.78069 7.22442 4.47824 7.02252C4.17586 6.82069 3.94012 6.53373 3.80093 6.19798C3.66173 5.86224 3.62531 5.49284 3.69627 5.13638C3.76723 4.77999 3.94238 4.45257 4.19956 4.19562C4.45675 3.93868 4.78448 3.7637 5.1412 3.6928C5.498 3.62191 5.86774 3.65829 6.2038 3.79736C6.53987 3.93642 6.82709 4.17194 7.02911 4.47404C7.23121 4.77621 7.33907 5.13143 7.33907 5.49484C7.33907 5.98211 7.14531 6.4495 6.80044 6.79405C6.45556 7.13861 5.98773 7.33218 5.5 7.33218ZM9.10238 2.55646C9.10238 2.69257 9.06201 2.82562 8.98632 2.93877C8.91062 3.05194 8.80303 3.14015 8.67719 3.19222C8.55134 3.24431 8.41283 3.25794 8.2792 3.23139C8.14558 3.20483 8.0229 3.13929 7.92654 3.04306C7.83025 2.94682 7.76461 2.8242 7.73802 2.69072C7.71143 2.55722 7.72507 2.41887 7.77721 2.29312C7.82935 2.16738 7.91766 2.05991 8.03089 1.9843C8.1442 1.90868 8.27734 1.86832 8.41359 1.86832C8.59625 1.86832 8.77148 1.94082 8.90063 2.06987C9.02985 2.19892 9.10238 2.37396 9.10238 2.55646ZM10.969 3.24461C10.989 2.38912 10.6697 1.56044 10.0805 0.939319C9.46206 0.343171 8.63221 0.016488 7.77301 0.0309666C6.87758 -0.0103222 4.12241 -0.0103222 3.22699 0.0309666C2.37097 0.0124486 1.54205 0.331349 0.919537 0.918674C0.330372 1.53979 0.0109656 2.36848 0.0309956 3.22396C-0.0103319 4.11854 -0.0103319 6.87113 0.0309956 7.76572C0.0109656 8.62122 0.330372 9.44988 0.919537 10.071C1.54205 10.6583 2.37097 10.9772 3.22699 10.9587C4.13619 11.0138 6.8638 11.0138 7.77301 10.9587C8.62932 10.9787 9.45876 10.6596 10.0805 10.071C10.6697 9.44988 10.989 8.62122 10.969 7.76572C11.0103 6.87113 11.0103 4.11854 10.969 3.22396V3.24461ZM9.79806 8.74976C9.70452 8.98649 9.56339 9.20139 9.38327 9.38134C9.20315 9.56129 8.98804 9.7023 8.75109 9.79575C7.68181 10.0118 6.5887 10.0858 5.5 10.016C4.41363 10.0859 3.32274 10.0118 2.25579 9.79575C2.0189 9.7023 1.80373 9.56129 1.62363 9.38134C1.44354 9.20139 1.30235 8.98649 1.20883 8.74976C0.919537 8.02033 0.981528 6.29997 0.981528 5.50172C0.981528 4.70347 0.919537 2.97623 1.20883 2.25368C1.29972 2.01466 1.43989 1.79742 1.62026 1.61603C1.80063 1.43465 2.01715 1.29318 2.25579 1.20081C3.32274 0.984722 4.41363 0.910678 5.5 0.980608C6.5887 0.910795 7.68181 0.984839 8.75109 1.20081C8.98804 1.29425 9.20315 1.4353 9.38327 1.61523C9.56339 1.79515 9.70452 2.01012 9.79806 2.2468C10.0873 2.97623 10.0185 4.69659 10.0185 5.49484C10.0185 6.29308 10.0873 8.02033 9.79806 8.74288V8.74976Z" fill="#505050"/>
</svg>
