<svg width="11" height="11" viewBox="0 0 11 11" fill="none" xmlns="http://www.w3.org/2000/svg">
<path d="M10.1406 0H0.859375C0.38457 0 0 0.38457 0 0.859375V10.1406C0 10.6154 0.38457 11 0.859375 11H10.1406C10.6154 11 11 10.6154 11 10.1406V0.859375C11 0.38457 10.6154 0 10.1406 0ZM10.3555 10.1406C10.3555 10.2588 10.2588 10.3555 10.1406 10.3555H0.859375C0.741211 10.3555 0.644531 10.2588 0.644531 10.1406V0.859375C0.644531 0.741211 0.741211 0.644531 0.859375 0.644531H10.1406C10.2588 0.644531 10.3555 0.741211 10.3555 0.859375V10.1406Z" fill="#505050"/>
<path d="M3.96172 4.37012H2.88965V7.80117H3.96172V4.37012Z" fill="#505050"/>
<path d="M6.88994 4.33789C6.27549 4.33789 5.89092 4.67305 5.82002 4.90938V4.37012H4.61475C4.62979 4.65586 4.61475 7.80117 4.61475 7.80117H5.82002V5.94707C5.82002 5.8418 5.81572 5.73867 5.8458 5.66563C5.92744 5.45938 6.10576 5.24453 6.42588 5.24453C6.84482 5.24453 7.03389 5.5625 7.03389 6.02656V7.80117H8.2499V5.89336C8.2499 4.83203 7.65264 4.33789 6.88994 4.33789Z" fill="#505050"/>
<path d="M3.40332 2.75C3.00801 2.75 2.74805 3.00566 2.74805 3.34512C2.74805 3.67813 2.99941 3.94023 3.38828 3.94023H3.39688C3.80078 3.94023 4.05215 3.67598 4.05 3.34512C4.04141 3.00566 3.79863 2.75 3.40332 2.75Z" fill="#505050"/>
</svg>
