<svg width="12" height="13" viewBox="0 0 12 13" fill="none" xmlns="http://www.w3.org/2000/svg">
<path fill-rule="evenodd" clip-rule="evenodd" d="M2.66667 2.6C2.66667 1.16406 3.86057 0 5.33333 0H9C10.6569 0 12 1.30957 12 2.925V10.075C12 11.6904 10.6569 13 9 13H5.33333C3.86057 13 2.66667 11.8359 2.66667 10.4V9.75C2.66667 9.391 2.96515 9.1 3.33333 9.1C3.70152 9.1 4 9.391 4 9.75V10.4C4 11.118 4.59693 11.7 5.33333 11.7H9C9.92047 11.7 10.6667 10.9725 10.6667 10.075V2.925C10.6667 2.02754 9.92047 1.3 9 1.3H5.33333C4.59693 1.3 4 1.88203 4 2.6V3.25C4 3.60898 3.70152 3.9 3.33333 3.9C2.96515 3.9 2.66667 3.60898 2.66667 3.25V2.6ZM5.5286 4.09038C5.78893 3.83654 6.21107 3.83654 6.4714 4.09038L8.4714 6.04038C8.73173 6.29421 8.73173 6.70579 8.4714 6.95961L6.4714 8.90961C6.21107 9.16344 5.78893 9.16344 5.5286 8.90961C5.26827 8.65579 5.26827 8.24421 5.5286 7.99038L6.39053 7.15H0.666667C0.29848 7.15 0 6.85899 0 6.5C0 6.141 0.29848 5.85 0.666667 5.85H6.39053L5.5286 5.00962C5.26827 4.75578 5.26827 4.34422 5.5286 4.09038Z" fill="#505050"/>
</svg>
