<svg width="16" height="16" viewBox="0 0 16 16" fill="none" xmlns="http://www.w3.org/2000/svg">
<path d="M14.7505 2.69542C14.7505 9.35351 9.35302 14.751 2.69493 14.751C2.39454 14.751 2.09671 14.74 1.80183 14.7184C1.46341 14.6936 1.2942 14.6812 1.14018 14.5925C1.01261 14.5191 0.891624 14.3889 0.827683 14.2563C0.750488 14.0962 0.750488 13.9095 0.750488 13.5361V11.3449C0.750488 11.0308 0.750488 10.8738 0.802172 10.7392C0.847827 10.6203 0.921981 10.5144 1.01812 10.4309C1.12696 10.3363 1.27452 10.2826 1.56965 10.1753L4.06386 9.26834C4.40723 9.14351 4.57892 9.08105 4.74181 9.09163C4.88544 9.10097 5.02366 9.15004 5.14109 9.23327C5.27426 9.32761 5.36826 9.48425 5.55624 9.79762L6.19493 10.8621C8.25597 9.92868 9.92679 8.25568 10.8616 6.19542L9.79713 5.55673C9.48377 5.36874 9.32712 5.27475 9.23278 5.14158C9.14955 5.02415 9.10048 4.88593 9.09114 4.7423C9.08057 4.57941 9.14302 4.40772 9.26786 4.06435L10.1748 1.57014C10.2822 1.27501 10.3358 1.12744 10.4304 1.01861C10.5139 0.922469 10.6198 0.848316 10.7387 0.80266C10.8733 0.750977 11.0303 0.750977 11.3444 0.750977H13.5356C13.909 0.750977 14.0958 0.750977 14.2558 0.828171C14.3884 0.892112 14.5186 1.0131 14.5921 1.14067C14.6807 1.2947 14.6931 1.4639 14.7179 1.80232C14.7395 2.0972 14.7505 2.39503 14.7505 2.69542Z" stroke="white" stroke-width="1.5" stroke-linecap="round" stroke-linejoin="round"/>
</svg>
