<svg width="16" height="16" viewBox="0 0 16 16" fill="none" xmlns="http://www.w3.org/2000/svg">
<path d="M6.35073 9.14621L14.5231 0.976843M6.58303 9.51359L8.43612 13.2199C8.88397 14.1155 9.10785 14.5633 9.38993 14.6834C9.63474 14.7876 9.91457 14.7687 10.1432 14.6326C10.4066 14.4758 10.5684 14.0019 10.892 13.0543L14.3933 2.80035C14.6753 1.97465 14.8162 1.5618 14.7197 1.28869C14.6358 1.0511 14.4489 0.86421 14.2114 0.780269C13.9382 0.683779 13.5254 0.824754 12.6996 1.10669L2.4457 4.60804C1.49807 4.93163 1.02425 5.09342 0.8674 5.35683C0.731278 5.58543 0.712417 5.86526 0.816628 6.11001C0.936716 6.39209 1.38454 6.61606 2.28018 7.06382L5.9864 8.91699C6.13402 8.99079 6.20781 9.02764 6.27168 9.07692C6.32846 9.1207 6.37933 9.17156 6.42302 9.22826C6.47238 9.29221 6.50924 9.36601 6.58303 9.51359Z" stroke="white" stroke-width="1.5" stroke-linecap="round" stroke-linejoin="round"/>
</svg>
