<?xml version="1.0" encoding="UTF-8"?><svg id="Layer_1" xmlns="http://www.w3.org/2000/svg" viewBox="0 0 215.47 29.44"><defs><style>.cls-1{fill:#1d1d1b;stroke-width:0px;}</style></defs><path class="cls-1" d="M112.75,10.56c0-.48-.26-.7-.7-.7h-1.28v-3.46h3.87c1.5,0,2.14.67,2.14,2.18v10.01c0,.45.26.7.7.7h1.28v3.42h-3.87c-1.5,0-2.14-.64-2.14-2.18v-9.98ZM112.94,0h3.52v3.74h-3.52V0ZM122.19,10.56c0-.48-.26-.7-.7-.7h-1.28v-3.46h3.74c1.44,0,2.14.67,2.14,1.82v.48c0,.35-.06.7-.06.7h.06c.7-1.38,2.46-3.39,5.76-3.39,3.62,0,5.7,1.89,5.7,6.21v6.37c0,.45.26.7.7.7h1.28v3.42h-3.87c-1.54,0-2.18-.64-2.18-2.18v-7.49c0-1.98-.51-3.33-2.56-3.33-2.18,0-3.81,1.38-4.38,3.33-.22.67-.32,1.41-.32,2.18v7.49h-4.03v-12.16ZM142.83,17.53s2.08,2.4,4.86,2.4c1.25,0,2.21-.51,2.21-1.6,0-2.3-8.61-2.27-8.61-7.55,0-3.26,2.94-4.77,6.34-4.77,2.21,0,5.73.74,5.73,3.39v1.7h-3.58v-.8c0-.77-1.15-1.15-2.05-1.15-1.44,0-2.43.51-2.43,1.47,0,2.56,8.67,2.05,8.67,7.49,0,3.07-2.72,4.99-6.27,4.99-4.48,0-6.78-2.91-6.78-2.91l1.92-2.66ZM157.87,10.56c0-.48-.26-.7-.7-.7h-1.28v-3.46h3.87c1.5,0,2.14.67,2.14,2.18v10.01c0,.45.26.7.7.7h1.28v3.42h-3.87c-1.5,0-2.14-.64-2.14-2.18v-9.98ZM158.06,0h3.52v3.74h-3.52V0ZM172.91,6.02c3.78,0,5.02,2.3,5.02,2.3h.06v-.42c0-.74.51-1.5,1.79-1.5h3.78v3.46h-1.25c-.42,0-.7.22-.7.64v11.23c0,5.6-4.35,7.71-8.61,7.71-2.05,0-4.22-.58-5.79-1.41l1.25-3.2s2.02,1.09,4.51,1.09,4.61-1.06,4.61-4v-.77c0-.38.03-.86.03-.86h-.06c-.96,1.38-2.37,2.11-4.54,2.11-4.67,0-7.33-3.78-7.33-8.26s2.53-8.13,7.23-8.13ZM177.68,14.17c0-3.71-1.86-4.7-4.06-4.7-2.46,0-3.81,1.79-3.81,4.54s1.44,4.96,4.06,4.96c1.95,0,3.81-1.12,3.81-4.8ZM186.77,4.16c0-.48-.26-.7-.7-.7h-1.28V0h3.87c1.5,0,2.18.67,2.18,2.14v5.73c0,.8-.06,1.38-.06,1.38h.06c.77-1.57,2.78-3.23,5.6-3.23,3.65,0,5.7,1.89,5.7,6.21v6.37c0,.45.26.7.7.7h1.28v3.42h-3.87c-1.5,0-2.14-.64-2.14-2.18v-7.49c0-1.98-.54-3.33-2.59-3.33s-3.81,1.41-4.42,3.39c-.19.64-.26,1.34-.26,2.11v7.49h-4.06V4.16ZM207.44,9.63h-2.11v-3.23h2.21V1.95h3.97v4.45h3.71v3.23h-3.71v6.59c0,2.69,2.11,3.07,3.23,3.07.45,0,.74-.06.74-.06v3.55s-.51.1-1.25.1c-2.27,0-6.78-.67-6.78-6.14v-7.1ZM7.55,6.96C3.57,6.96,0,9.88,0,15.13c0,4.94,3.63,8.11,8.01,8.11,3.35,0,5.53-2.14,5.53-2.14l-.71-1.09s-1.83,1.96-4.81,1.96c-3.6,0-6.65-2.58-6.65-7.08h12.45s.06-.5.06-.84c0-3.76-2.11-7.08-6.33-7.08ZM1.46,13.67c.56-3.63,3.2-5.5,6.06-5.5,2.58,0,4.84,1.71,5,5.5H1.46ZM34.78,6.96c-2.67,0-5.03,2.05-5.9,4.22h-.06c-.34-2.76-1.8-4.22-4.91-4.22-2.42,0-5.19,2.05-5.96,4.38h-.06s.12-.56.12-1.27v-2.73h-1.3v15.53h1.3v-7.58c0-.75.06-1.46.25-2.11.71-2.58,2.89-5,5.65-5,3.42,0,3.79,2.64,3.79,5.31v9.38h1.3v-7.58c0-.9.09-1.68.31-2.39.68-2.42,2.89-4.72,5.47-4.72,3.29,0,3.88,2.39,3.88,5.31v9.38h1.3v-9.84c0-3.7-1.18-6.06-5.19-6.06ZM50.13,6.96c-3.97,0-7.55,2.92-7.55,8.17,0,4.94,3.63,8.11,8.01,8.11,3.35,0,5.53-2.14,5.53-2.14l-.71-1.09s-1.83,1.96-4.81,1.96c-3.6,0-6.65-2.58-6.65-7.08h12.45s.06-.5.06-.84c0-3.76-2.11-7.08-6.34-7.08ZM44.04,13.67c.56-3.63,3.2-5.5,6.06-5.5,2.58,0,4.84,1.71,5,5.5h-11.06ZM60.53,11.56h-.06s.12-.56.12-1.27v-2.95h-1.3v15.53h1.3v-6.71c0-1.02.12-2.17.47-3.26.68-2.3,2.2-4.35,4.63-4.35.34,0,.71.06.71.06v-1.3s-.43-.09-.9-.09c-2.45,0-4.19,1.96-4.97,4.35ZM73.42,6.96c-3.38,0-5.25,1.71-5.25,1.71l.75,1.06s1.74-1.49,4.44-1.49c2.48,0,4.25,1.18,4.25,4.63v.53h-1.02c-2.76,0-9.63.06-9.63,5.34,0,3.11,2.76,4.5,5.28,4.5,4.04,0,5.47-3.82,5.43-3.82h.06s-.12.56-.12,1.4v2.05h1.3v-10.03c0-3.88-1.93-5.87-5.5-5.87ZM77.61,15.44c0,3.07-1.93,6.58-5.31,6.58-2.64,0-3.97-1.74-3.97-3.38,0-4.04,5.65-4.04,8.29-4.04h.99v.84ZM82.15,22.86h1.3V1.05h-1.3v21.81ZM98.11.82v8.38c0,.71.12,1.27.12,1.27h-.06s-1.46-3.51-5.37-3.51-6.96,3.2-6.96,8.14,2.55,8.14,6.71,8.14,5.62-3.51,5.62-3.51h.06s-.12.47-.12,1.18v1.96h1.3V.82h-1.3ZM92.62,21.96c-3.17,0-5.4-2.67-5.4-6.86s2.48-6.86,5.53-6.86c3.63,0,5.4,3.38,5.4,6.83,0,4.88-2.67,6.89-5.53,6.89Z"/><path class="cls-1" d="M7.55,6.89C3.57,6.89,0,9.81,0,15.06c0,4.94,3.63,8.11,8.01,8.11,3.35,0,5.53-2.14,5.53-2.14l-.71-1.09s-1.83,1.96-4.81,1.96c-3.6,0-6.65-2.58-6.65-7.08h12.45s.06-.5.06-.84c0-3.76-2.11-7.08-6.33-7.08ZM1.46,13.6c.56-3.63,3.2-5.5,6.06-5.5,2.58,0,4.84,1.71,5,5.5H1.46ZM34.78,6.89c-2.67,0-5.03,2.05-5.9,4.22h-.06c-.34-2.76-1.8-4.22-4.91-4.22-2.42,0-5.19,2.05-5.96,4.38h-.06s.12-.56.12-1.27v-2.73h-1.3v15.53h1.3v-7.58c0-.75.06-1.46.25-2.11.71-2.58,2.89-5,5.65-5,3.42,0,3.79,2.64,3.79,5.31v9.38h1.3v-7.58c0-.9.09-1.68.31-2.39.68-2.42,2.89-4.72,5.47-4.72,3.29,0,3.88,2.39,3.88,5.31v9.38h1.3v-9.84c0-3.7-1.18-6.06-5.19-6.06ZM50.13,6.89c-3.97,0-7.55,2.92-7.55,8.17,0,4.94,3.63,8.11,8.01,8.11,3.35,0,5.53-2.14,5.53-2.14l-.71-1.09s-1.83,1.96-4.81,1.96c-3.6,0-6.65-2.58-6.65-7.08h12.45s.06-.5.06-.84c0-3.76-2.11-7.08-6.34-7.08ZM44.04,13.6c.56-3.63,3.2-5.5,6.06-5.5,2.58,0,4.84,1.71,5,5.5h-11.06ZM60.53,11.49h-.06s.12-.56.12-1.27v-2.95h-1.3v15.53h1.3v-6.71c0-1.02.12-2.17.47-3.26.68-2.3,2.2-4.35,4.63-4.35.34,0,.71.06.71.06v-1.3s-.43-.09-.9-.09c-2.45,0-4.19,1.96-4.97,4.35ZM73.42,6.89c-3.38,0-5.25,1.71-5.25,1.71l.75,1.06s1.74-1.49,4.44-1.49c2.48,0,4.25,1.18,4.25,4.63v.53h-1.02c-2.76,0-9.63.06-9.63,5.34,0,3.11,2.76,4.5,5.28,4.5,4.04,0,5.47-3.82,5.43-3.82h.06s-.12.56-.12,1.4v2.05h1.3v-10.03c0-3.88-1.93-5.87-5.5-5.87ZM77.61,15.37c0,3.07-1.93,6.58-5.31,6.58-2.64,0-3.97-1.74-3.97-3.38,0-4.04,5.65-4.04,8.29-4.04h.99v.84ZM82.15,22.79h1.3V.98h-1.3v21.81ZM98.11.75v8.38c0,.71.12,1.27.12,1.27h-.06s-1.46-3.51-5.37-3.51-6.96,3.2-6.96,8.14,2.55,8.14,6.71,8.14,5.62-3.51,5.62-3.51h.06s-.12.47-.12,1.18v1.96h1.3V.75h-1.3ZM92.62,21.89c-3.17,0-5.4-2.67-5.4-6.86s2.48-6.86,5.53-6.86c3.63,0,5.4,3.38,5.4,6.83,0,4.88-2.67,6.89-5.53,6.89Z"/></svg>