<svg width="422" height="352" viewBox="0 0 422 352" fill="none" xmlns="http://www.w3.org/2000/svg">
<path d="M227.795 83.5819L227.783 198.899L251.281 198.539L254.265 83.8277C254.265 83.8277 241.069 82.1221 227.795 83.5819Z" fill="#363636"/>
<path d="M245.629 174.878H233.098V95.876L249.04 96.2063L245.629 174.878Z" stroke="white" stroke-width="2" stroke-miterlimit="10" stroke-linecap="round" stroke-linejoin="round"/>
<path d="M232.729 92.6221H249.04" stroke="white" stroke-width="2" stroke-miterlimit="10" stroke-linecap="round" stroke-linejoin="round"/>
<path d="M232.729 179.365H249.04" stroke="white" stroke-width="2" stroke-miterlimit="10" stroke-linecap="round" stroke-linejoin="round"/>
<path d="M253.232 78.1622L275.998 199.491H291.087L264.548 76.074C264.548 76.074 259.716 73.0685 253.232 78.1622Z" fill="#415F4D"/>
<path d="M255.341 89.4047L266.84 86.7295" stroke="white" stroke-width="2" stroke-miterlimit="10" stroke-linecap="round" stroke-linejoin="round"/>
<path d="M287.406 182.374L273.316 185.194" stroke="white" stroke-width="2" stroke-miterlimit="10" stroke-linecap="round" stroke-linejoin="round"/>
<path d="M213.444 95.2847C213.444 95.2847 222.649 93.161 227.975 95.2847L224.561 198.9H208.158L213.444 95.2847Z" fill="#16476A"/>
<path d="M218.181 173.402C220.509 173.492 222.851 161.841 223.413 147.376C223.974 132.911 222.542 121.112 220.214 121.021C217.887 120.93 215.545 132.582 214.983 147.047C214.422 161.511 215.854 173.311 218.181 173.402Z" stroke="white" stroke-width="2" stroke-miterlimit="10" stroke-linecap="round" stroke-linejoin="round"/>
<path d="M24.6687 253.585L64.6762 246.204L79.1061 249.894V350.496H24.6687V253.585Z" fill="#363636"/>
<path d="M72.4133 333.964C74.1168 333.964 75.4978 318.771 75.4978 300.03C75.4978 281.289 74.1168 266.097 72.4133 266.097C70.7098 266.097 69.3289 281.289 69.3289 300.03C69.3289 318.771 70.7098 333.964 72.4133 333.964Z" stroke="white" stroke-width="2" stroke-miterlimit="10" stroke-linecap="round" stroke-linejoin="round"/>
<path d="M64.6763 246.204V350.745" stroke="white" stroke-width="2" stroke-miterlimit="10" stroke-linecap="round" stroke-linejoin="round"/>
<path d="M59.5476 235.349V350.46H1.00146V239.57L44.0312 231.129L59.5476 235.349Z" fill="#16476A"/>
<path d="M59.5474 247.883V255.533C55.661 255.909 50.5281 255.988 44.0305 255.266V247.626C50.5281 248.337 55.661 248.268 59.5474 247.883Z" fill="#16476A"/>
<path d="M59.5474 336.245V343.896C55.661 344.282 50.5281 344.351 44.0305 343.639V335.988C50.5281 336.7 55.661 336.631 59.5474 336.245Z" fill="#16476A"/>
<path d="M44.0315 231.13V350.746" stroke="#363636" stroke-width="2" stroke-miterlimit="10" stroke-linecap="round"/>
<path d="M358.208 62.7715L371.523 198.899H381.968L367.707 62.7715H358.208Z" fill="#415F4D"/>
<path d="M359.064 71.5577C359.064 71.5577 342.037 64.8175 332.789 70.3351L332.782 198.631C332.782 198.631 350.594 200.564 356.075 198.633L359.064 71.5577Z" fill="#16476A"/>
<path d="M345.631 170.489C349.32 170.489 352.31 155.604 352.31 137.243C352.31 118.881 349.32 103.996 345.631 103.996C341.941 103.996 338.951 118.881 338.951 137.243C338.951 155.604 341.941 170.489 345.631 170.489Z" stroke="white" stroke-width="2" stroke-miterlimit="10" stroke-linecap="round" stroke-linejoin="round"/>
<path d="M358.808 82.476C358.808 82.476 344.092 76.405 332.788 82.4746" stroke="white" stroke-width="2" stroke-miterlimit="10" stroke-linecap="round" stroke-linejoin="round"/>
<path d="M356.322 188.158C356.322 188.158 342.716 191.752 332.782 188.156" stroke="white" stroke-width="2" stroke-miterlimit="10" stroke-linecap="round" stroke-linejoin="round"/>
<path d="M395.337 76.1465C395.337 76.1465 388.415 74.2028 381.452 75.8667L381.445 198.081C381.445 198.081 390.871 199.922 393.771 198.082L395.337 76.1465Z" fill="#363636"/>
<path d="M390.806 179.88H384.233V89.873L392.596 90.2492L390.806 179.88Z" stroke="white" stroke-width="2" stroke-miterlimit="10" stroke-linecap="round" stroke-linejoin="round"/>
<path d="M384.04 86.166H392.596" stroke="white" stroke-width="2" stroke-miterlimit="10" stroke-linecap="round" stroke-linejoin="round"/>
<path d="M384.04 184.991H392.596" stroke="white" stroke-width="2" stroke-miterlimit="10" stroke-linecap="round" stroke-linejoin="round"/>
<path d="M321.712 77.6207L314.15 197.099L326.335 198.899L332.783 77.6207C332.783 77.6207 326.36 76.4921 321.712 77.6207Z" fill="#16476A"/>
<path d="M328.796 95.7878C328.538 98.2513 327.178 100.128 325.759 99.9796C324.34 99.8311 323.399 97.7134 323.657 95.2499C323.915 92.7864 325.275 90.9095 326.694 91.0581C328.113 91.2066 329.054 93.3243 328.796 95.7878Z" stroke="#363636" stroke-width="2" stroke-miterlimit="10"/>
<path d="M323.424 184.339C323.166 186.802 321.806 188.679 320.387 188.53C318.967 188.382 318.026 186.264 318.285 183.801C318.543 181.337 319.902 179.46 321.322 179.609C322.741 179.757 323.682 181.875 323.424 184.339Z" stroke="#363636" stroke-width="2" stroke-miterlimit="10"/>
<path d="M327.358 114.322L324.534 168.052" stroke="white" stroke-width="2" stroke-miterlimit="10" stroke-linecap="round" stroke-linejoin="round"/>
<path d="M322.464 124.279L320.854 157.374" stroke="white" stroke-width="2" stroke-miterlimit="10" stroke-linecap="round" stroke-linejoin="round"/>
<path d="M61.6181 171.927L23.5081 184.923L20.2163 143.826L55.03 141.176L61.6181 171.927Z" fill="#363636"/>
<path d="M51.2555 168.387L13.877 176.207L23.374 183.245L59.552 171.222L51.2555 168.387Z" fill="white"/>
<path d="M13.877 176.207L51.2556 168.387L42.8405 55.7959L5.46191 63.6162L13.877 176.207Z" fill="#16476A"/>
<path d="M42.8403 55.7959L53.1757 60.488L61.6181 171.928L51.2555 168.387L42.8403 55.7959Z" fill="#16476A"/>
<path d="M44.0315 69.6116C44.0315 69.6116 50.5182 67.2313 53.9445 70.6371" stroke="white" stroke-width="2" stroke-miterlimit="10" stroke-linecap="round" stroke-linejoin="round"/>
<path d="M50.5156 158.48C50.5156 158.48 57.2533 156.126 60.6796 159.532" stroke="white" stroke-miterlimit="10" stroke-linecap="round" stroke-linejoin="round"/>
<path d="M42.8403 55.7959L51.2555 168.387" stroke="#363636" stroke-width="2" stroke-miterlimit="10" stroke-linecap="round" stroke-linejoin="round"/>
<path d="M13.1284 48.9186L41.0695 41.6436V174.568L13.1284 166.773V48.9186Z" fill="#363636"/>
<path d="M28.9412 39.7646L38.2477 42.379V169.727L28.9412 168.387V39.7646Z" fill="white"/>
<path d="M1 42.7379L28.9411 35.4629V168.387L1 160.592V42.7379Z" fill="#415F4D"/>
<path d="M114.792 78.646L158.203 70.6377L173.86 74.6419V194.269H114.792V78.646Z" fill="#16476A"/>
<path d="M166.598 165.863C168.446 165.863 169.945 149.378 169.945 129.043C169.945 108.708 168.446 92.2236 166.598 92.2236C164.749 92.2236 163.251 108.708 163.251 129.043C163.251 149.378 164.749 165.863 166.598 165.863Z" stroke="white" stroke-width="2" stroke-miterlimit="10" stroke-linecap="round" stroke-linejoin="round"/>
<path d="M158.203 70.6377V194.539" stroke="white" stroke-width="2" stroke-miterlimit="10" stroke-linecap="round" stroke-linejoin="round"/>
<path d="M397.378 34.2793H208.158V350.746H397.378V34.2793Z" stroke="#363636" stroke-width="2" stroke-miterlimit="10" stroke-linecap="round" stroke-linejoin="round"/>
<path d="M397.378 198.899H208.158" stroke="#363636" stroke-width="2" stroke-miterlimit="10" stroke-linecap="round" stroke-linejoin="round"/>
<path d="M1 160.592L181.182 198.899H1V160.592Z" fill="#363636"/>
<path d="M1 350.746V1L183.004 39.3075V350.746H1Z" stroke="#363636" stroke-width="2" stroke-miterlimit="10" stroke-linecap="round" stroke-linejoin="round"/>
<path d="M208.722 350.237H216.466L195.233 123.195H187.489L208.722 350.237Z" fill="#363636"/>
<path d="M130.893 149.882H193.225V142.7H130.893V149.882Z" fill="#363636"/>
<path d="M135.566 200.45H197.898V193.268H135.566V200.45Z" fill="#363636"/>
<path d="M140.239 251.02H202.571V243.838H140.239V251.02Z" fill="#363636"/>
<path d="M144.913 301.588H207.245V294.406H144.913V301.588Z" fill="#363636"/>
<path d="M142.977 350.237H150.721L129.488 123.195H121.744L142.977 350.237Z" fill="#363636"/>
<path d="M145.106 350.237H152.849L131.617 123.195H123.873L145.106 350.237Z" fill="#BC8B45"/>
<path d="M131.781 147.709H194.113V140.527H131.781V147.709Z" fill="#BC8B45"/>
<path d="M136.454 198.278H198.786V191.096H136.454V198.278Z" fill="#BC8B45"/>
<path d="M141.127 248.848H203.459V241.666H141.127V248.848Z" fill="#BC8B45"/>
<path d="M145.801 299.416H208.133V292.234H145.801V299.416Z" fill="#BC8B45"/>
<path d="M210.851 350.237H218.595L197.362 123.195H189.618L210.851 350.237Z" fill="#BC8B45"/>
<path d="M245.794 299.346C245.794 299.346 238.746 339.533 239.342 350.237H392.049C392.049 350.237 398.56 313.205 392.049 299.346H245.794Z" fill="#363636"/>
<path d="M271.908 299.346C271.908 299.346 308.886 323.674 339.7 324.792C370.515 325.909 392.049 299.346 392.049 299.346H271.908Z" fill="white"/>
<path d="M316.284 350.237C316.284 350.237 301.286 340.153 295.799 331.684C295.799 331.684 290.782 344.153 298.058 350.237H316.284Z" fill="#363636"/>
<path d="M126.33 153.18C129.365 145.045 123.236 140.256 117.144 132.477C114.119 128.615 114.354 122.567 121.89 122.436C126.411 122.358 133.449 128.439 144.319 138.03C150.132 143.16 155.116 166.886 155.116 166.886C159.558 176.684 121.292 169.039 126.33 153.18Z" fill="#CD6069"/>
<path d="M144.326 146.999L101.269 88.4707L31.6282 171.712L79.7276 224.321L144.326 146.999Z" fill="#363636"/>
<path d="M94.8927 89.292L67.4749 127.501L106.713 158.472L127.464 132.21L94.8927 89.292Z" fill="#363636"/>
<path d="M141.466 147.116L97.1071 89.0324L94.8927 89.2928L124.268 129.114L89.8966 89.0779L86.7162 90.5064L83.5272 86.7275L20.1719 162.971L81.0369 218.326L141.466 147.116Z" fill="white"/>
<path d="M139.016 147.065L127.464 132.211" stroke="#363636" stroke-width="2" stroke-miterlimit="10" stroke-linecap="round" stroke-linejoin="round"/>
<path d="M144.326 146.999L131.668 145.239L77.2992 89.4385L10.9717 167.445L67.3589 222.174L79.7277 224.322L144.326 146.999Z" fill="#16476A"/>
<path d="M23.9316 159.251L70.2239 202.052L120.789 147.422L74.4967 104.621L23.9316 159.251Z" stroke="white" stroke-width="2" stroke-miterlimit="10" stroke-linecap="round" stroke-linejoin="round"/>
<path d="M74.894 181.402L40.2966 149.413" stroke="#363636" stroke-width="2" stroke-miterlimit="10" stroke-linecap="round" stroke-linejoin="round"/>
<path d="M62.7583 181.858L43.4688 164.022" stroke="#363636" stroke-width="2" stroke-miterlimit="10" stroke-linecap="round" stroke-linejoin="round"/>
<path d="M128.218 160.353C128.218 160.353 128.832 162.582 126.061 165.679C122.599 169.548 116.335 170.401 115.371 168.27C115.002 167.454 122.434 164.382 120.194 169.79C117.954 175.198 113.638 178.204 111.147 177.062C108.657 175.919 119.26 173.278 113 181.193C106.972 188.814 103.82 182.025 101.512 185.075C99.2049 188.125 99.1208 196.562 93.9588 198.904C90.1288 200.641 97.8925 190.714 100.718 190.334C103.543 189.953 87.8585 218.738 78.2056 212.126" stroke="white" stroke-width="2" stroke-miterlimit="10" stroke-linecap="round" stroke-linejoin="round"/>
<path d="M86.7163 90.5068L125.262 136.209" stroke="#363636" stroke-width="2" stroke-miterlimit="10" stroke-linecap="round" stroke-linejoin="round"/>
<path d="M131.668 145.238L67.3589 222.174" stroke="#363636" stroke-width="2" stroke-miterlimit="10" stroke-linecap="round" stroke-linejoin="round"/>
<path d="M138.432 153.128C141.467 144.993 135.338 140.205 129.246 132.425C126.221 128.563 126.456 122.515 133.992 122.385C138.513 122.306 145.552 128.387 156.421 137.978C162.235 143.108 165.623 160.152 165.623 160.152C170.064 169.95 197.063 222.192 197.063 222.192L220.486 211.458L249.774 267.585C249.774 267.585 211.187 286.001 186.19 286.001C144.461 286.001 136.847 190.272 136.847 190.272C129.382 185.959 127.288 176.86 127.288 176.86C118.046 175.158 109.157 167.028 110.519 163.7C112.182 159.636 130.942 163.173 130.942 163.173C130.942 163.173 136.47 157.963 138.432 153.128Z" fill="#DA7C80"/>
<path d="M186.191 236.692L197.064 222.191" stroke="#363636" stroke-width="2" stroke-miterlimit="10" stroke-linecap="round" stroke-linejoin="round"/>
<path d="M295.74 192.69C295.74 192.69 295.518 179.823 268.442 185.953C255.439 188.898 220.487 211.458 220.487 211.458L249.774 267.585L295.74 192.69Z" fill="#16476A"/>
<path d="M233.458 203.427L258.113 248.529" stroke="white" stroke-width="2" stroke-miterlimit="10" stroke-linejoin="round" stroke-dasharray="5 5"/>
<path d="M239.342 247.594C239.342 247.594 255.764 219.531 293.303 217.477L249.774 267.585L239.342 247.594Z" fill="#363636"/>
<path d="M288.741 176.201L289.92 190.024L311.538 189.435L306.869 168.944L288.741 176.201Z" fill="#DA7C80"/>
<path d="M311.457 164.691C312.521 155.754 305.37 147.556 295.485 146.38C285.599 145.204 276.723 151.495 275.658 160.432C274.594 169.369 281.745 177.568 291.63 178.744C301.516 179.92 310.392 173.628 311.457 164.691Z" fill="#DA7C80"/>
<path d="M283.457 148.789C280.126 148.547 280.558 135.312 289.321 135.302C306.262 135.283 340.756 155.08 309.771 181.68L306.869 168.944C298.895 165.489 305.355 157.061 305.355 157.061C305.355 157.061 302.331 150.164 283.457 148.789Z" fill="#363636"/>
<path d="M291.849 162.104C291.534 162.959 290.937 163.523 290.516 163.366C290.095 163.207 290.01 162.386 290.325 161.531C290.64 160.677 291.237 160.113 291.658 160.271C292.078 160.428 292.164 161.249 291.849 162.104Z" fill="#363636"/>
<path d="M280.889 158.233C280.574 159.088 279.977 159.652 279.556 159.495C279.135 159.336 279.049 158.515 279.364 157.661C279.679 156.806 280.276 156.241 280.697 156.4C281.118 156.558 281.204 157.379 280.889 158.233Z" fill="#363636"/>
<path d="M293.338 170.176C293.338 170.176 293.022 172.004 290.339 172.252" stroke="#363434" stroke-width="2" stroke-miterlimit="10" stroke-linecap="round" stroke-linejoin="round"/>
<path d="M288.915 178.243C288.915 178.243 295.919 180.389 302.565 176.907" stroke="#363434" stroke-width="2" stroke-miterlimit="10" stroke-linecap="round" stroke-linejoin="round"/>
<path d="M281.078 163.741C281.078 163.741 282.28 161.3 283.457 161.143C284.634 160.985 285.757 164.607 285.757 164.607" stroke="#363434" stroke-width="2" stroke-miterlimit="10" stroke-linecap="round"/>
<path d="M293.146 158.545C292.69 159.03 291.373 158.76 290.205 157.941C289.036 157.122 288.459 156.065 288.916 155.579C289.372 155.094 290.69 155.364 291.858 156.183C293.026 157.002 293.603 158.06 293.146 158.545Z" fill="#363636"/>
<path d="M285.747 153.694C285.631 154.346 284.511 154.62 283.246 154.306C281.982 153.991 281.05 153.208 281.167 152.557C281.283 151.905 282.402 151.631 283.668 151.946C284.932 152.26 285.864 153.043 285.747 153.694Z" fill="#363636"/>
<path d="M283.363 159.734C280.937 163.248 277.209 164.212 275.037 161.888C272.866 159.564 273.072 154.831 275.499 151.317C277.925 147.802 281.653 146.838 283.825 149.162C285.996 151.486 285.79 156.219 283.363 159.734Z" stroke="white" stroke-width="2" stroke-miterlimit="10" stroke-linecap="round" stroke-linejoin="round"/>
<path d="M302.144 162.603C303.368 158.4 300.952 154.001 296.747 152.777C292.542 151.553 288.14 153.968 286.916 158.17C285.691 162.373 288.107 166.772 292.312 167.996C296.517 169.22 300.919 166.805 302.144 162.603Z" stroke="white" stroke-width="2" stroke-miterlimit="10" stroke-linecap="round" stroke-linejoin="round"/>
<path d="M284.714 157.062L286.973 157.947" stroke="white" stroke-width="2" stroke-miterlimit="10" stroke-linecap="round" stroke-linejoin="round"/>
<path d="M303.419 169.488C303.904 172.015 306.818 173.582 309.928 172.986C313.037 172.39 315.166 169.859 314.681 167.332C314.197 164.805 311.283 163.239 308.173 163.834C305.063 164.43 302.935 166.961 303.419 169.488Z" fill="#DA7C80"/>
<path d="M305.198 172.106C305.198 172.106 306.18 172.862 307.326 172.984" stroke="#363636" stroke-width="2" stroke-miterlimit="10" stroke-linecap="round" stroke-linejoin="round"/>
<path d="M311.669 166.643C311.669 166.643 307.193 165.881 306.431 170.188" stroke="#363636" stroke-width="2" stroke-miterlimit="10" stroke-linecap="round" stroke-linejoin="round"/>
<path d="M392.049 299.346H245.794C245.794 299.346 246.687 229.304 289.92 190.026L311.538 189.436C311.538 189.436 350.871 189.436 392.049 235.45V272.463V299.346Z" fill="#16476A"/>
<path d="M289.92 190.025C289.92 190.025 291.168 197.328 297.716 198.483C304.264 199.638 311.538 189.435 311.538 189.435L289.92 190.025Z" fill="white"/>
<path d="M338.942 256.773L380.45 223.594" stroke="white" stroke-width="2" stroke-miterlimit="10" stroke-linejoin="round" stroke-dasharray="5 5"/>
<path d="M315.434 203.428C315.434 203.428 303.879 225.943 350.101 267.586" stroke="#363434" stroke-width="2" stroke-miterlimit="10" stroke-linecap="round" stroke-linejoin="round"/>
<path d="M350.101 267.585L392.049 235.449C392.049 235.449 413.629 257.768 421.326 285.486C429.022 313.204 368.313 350.236 368.313 350.236L342.512 336.179C342.512 336.179 334.808 344.802 328.645 343.955C322.482 343.109 330.186 317.428 333.267 314.87C336.349 312.311 353.297 314.87 353.297 314.87L372.451 293.699L350.101 267.585Z" fill="#DA7C80"/>
<path d="M342.511 336.18L368.313 350.237" stroke="#363434" stroke-width="2" stroke-miterlimit="10" stroke-linecap="round" stroke-linejoin="round"/>
<path d="M372.451 293.7L382.841 282.792" stroke="#363434" stroke-width="2" stroke-miterlimit="10" stroke-linecap="round" stroke-linejoin="round"/>
</svg>
